<?xml version="1.0" encoding="UTF-8" standalone="no"?>
<svg
   width="940"
   height="500"
   stroke-width="1"
   stroke="#000000"
   fill="none"
   version="1.1"
   id="svg2"
   xmlns="http://www.w3.org/2000/svg"
   xmlns:svg="http://www.w3.org/2000/svg">
  <defs
     id="defs2">
    <clipPath
       id="threePointClipNBA">
      <rect
         id="threePointBoundingBoxNBA"
         x="30"
         y="0"
         width="440"
         height="290" />
    </clipPath>
  </defs>
  <g
     id="left"
     transform="rotate(-90,250,250)">
    <g
       id="g35"
       stroke="#000000">
      <g
         id="g28"
         fill="#d1af84">
        <path
           id="rect28"
           d="M 0,0 H 500 V 470 H 0 Z" />
        <!-- 50'w x 94'l -->
        <path
           id="line28"
           d="M 0,470 H 500" />
        <!-- 50'w @ half court-->
      </g>
      <g
         id="g29">
        <path
           id="path28"
           d="m 230,470 a 20,20 0 0 1 40,0" />
        <path
           id="path29"
           d="m 190,470 a 60,60 0 0 1 120,0" />
      </g>
      <g
         id="g32">
        <g
           id="g31">
          <path
             id="path30"
             d="m 190,190 a 60,60 0 0 0 120,0" />
          <path
             id="path31"
             d="m 190,190 a 60,60 0 0 1 120,0"
             stroke-dasharray="15, 15" />
        </g>
      </g>
      <g
         id="g33">
        <path
           id="line32"
           d="M 0,280 H 30" />
        <path
           id="line33"
           d="M 500,280 H 470" />
      </g>
      <g
         id="g34">
        <path
           id="line34"
           d="m 220,40 h 60" />
        <path
           id="circle34"
           style="stroke:#ff4433"
           d="M 257.5,50 A 7.5,7.5 0 0 1 250,57.5 7.5,7.5 0 0 1 242.5,50 7.5,7.5 0 0 1 250,42.5 7.5,7.5 0 0 1 257.5,50 Z" />
        <path
           id="rect34"
           style="fill:#ff4433;stroke:#ff4433"
           d="m 247.5,40 h 5 v 2.5 h -5 z" />
      </g>
    </g>
    <g
       id="g52">
      <g
         id="g45">
        <path
           id="rect35"
           d="M 170,0 H 330 V 190 H 170 Z" />
        <g
           id="g42">
          <path
             id="line35"
             d="m 160,70 h 10" />
          <path
             id="line36"
             d="m 160,80 h 10" />
          <path
             id="line37"
             d="m 160,110 h 10" />
          <path
             id="line38"
             d="m 160,140 h 10" />
          <path
             id="line39"
             d="m 330,70 h 10" />
          <path
             id="line40"
             d="m 330,80 h 10" />
          <path
             id="line41"
             d="m 330,110 h 10" />
          <path
             id="line42"
             d="m 330,140 h 10" />
        </g>
        <g
           id="g44">
          <path
             id="path42"
             d="m 210,47.5 a 40,40 0 0 0 80,0" />
          <path
             id="line43"
             d="m 210,40 v 7.5" />
          <path
             id="line44"
             d="m 290,40 v 7.5" />
        </g>
      </g>
      <g
         id="g48"
         clip-path="url(#threePointClipNBA)">
        <g
           id="g47">
          <path
             id="line45"
             d="M 30,0 V 140" />
          <path
             id="line46"
             d="M 470,0 V 140" />
          <path
             id="path46"
             d="m 250,285 a 238.75,238.75 0 0 0 0,-477.5" />
          <path
             id="path47"
             d="m 250,285 a 238.75,238.75 0 0 1 0,-477.5" />
        </g>
      </g>
      <g
         id="g51">
        <path
           id="line48"
           d="M 140,0 V 5" />
        <path
           id="line49"
           d="M 360,0 V 5" />
        <path
           id="line50"
           d="m 200,130 h 5" />
        <path
           id="line51"
           d="m 300,130 h -5" />
      </g>
    </g>
  </g>
  <g
     id="right"
     transform="rotate(90,470,470)">
    <g
       id="g10"
       stroke="#000000">
      <g
         id="g3"
         fill="#d1af84">
        <path
           id="rect2"
           d="M 0,0 H 500 V 470 H 0 Z" />
        <!-- 50'w x 94'l -->
        <path
           id="line2"
           d="M 0,470 H 500" />
        <!-- 50'w @ half court-->
      </g>
      <g
         id="g4">
        <path
           id="path3"
           d="m 230,470 a 20,20 0 0 1 40,0" />
        <path
           id="path4"
           d="m 190,470 a 60,60 0 0 1 120,0" />
      </g>
      <g
         id="g7">
        <g
           id="g6">
          <path
             id="path5"
             d="m 190,190 a 60,60 0 0 0 120,0" />
          <path
             id="path6"
             d="m 190,190 a 60,60 0 0 1 120,0"
             stroke-dasharray="15, 15" />
        </g>
      </g>
      <g
         id="g8">
        <path
           id="line7"
           d="M 0,280 H 30" />
        <path
           id="line8"
           d="M 500,280 H 470" />
      </g>
      <g
         id="g9">
        <path
           id="line9"
           d="m 220,40 h 60" />
        <path
           id="circle9"
           style="stroke:#ff4433"
           d="M 257.5,50 A 7.5,7.5 0 0 1 250,57.5 7.5,7.5 0 0 1 242.5,50 7.5,7.5 0 0 1 250,42.5 7.5,7.5 0 0 1 257.5,50 Z" />
        <path
           id="rect9"
           style="fill:#ff4433;stroke:#ff4433"
           d="m 247.5,40 h 5 v 2.5 h -5 z" />
      </g>
    </g>
    <g
       id="g27">
      <g
         id="g20">
        <path
           id="rect10"
           d="M 170,0 H 330 V 190 H 170 Z" />
        <g
           id="g17">
          <path
             id="line10"
             d="m 160,70 h 10" />
          <path
             id="line11"
             d="m 160,80 h 10" />
          <path
             id="line12"
             d="m 160,110 h 10" />
          <path
             id="line13"
             d="m 160,140 h 10" />
          <path
             id="line14"
             d="m 330,70 h 10" />
          <path
             id="line15"
             d="m 330,80 h 10" />
          <path
             id="line16"
             d="m 330,110 h 10" />
          <path
             id="line17"
             d="m 330,140 h 10" />
        </g>
        <g
           id="g19">
          <path
             id="path17"
             d="m 210,47.5 a 40,40 0 0 0 80,0" />
          <path
             id="line18"
             d="m 210,40 v 7.5" />
          <path
             id="line19"
             d="m 290,40 v 7.5" />
        </g>
      </g>
      <g
         id="g23"
         clip-path="url(#threePointClipNBA)">
        <g
           id="g22">
          <path
             id="line20"
             d="M 30,0 V 140" />
          <path
             id="line21"
             d="M 470,0 V 140" />
          <path
             id="path21"
             d="m 250,285 a 238.75,238.75 0 0 0 0,-477.5" />
          <path
             id="path22"
             d="m 250,285 a 238.75,238.75 0 0 1 0,-477.5" />
        </g>
      </g>
      <g
         id="g26">
        <path
           id="line23"
           d="M 140,0 V 5" />
        <path
           id="line24"
           d="M 360,0 V 5" />
        <path
           id="line25"
           d="m 200,130 h 5" />
        <path
           id="line26"
           d="m 300,130 h -5" />
      </g>
    </g>
  </g>
</svg>
