<?xml version="1.0" encoding="UTF-8"?>
<!-- <svg xmlns="http://www.w3.org/2000/svg" xmlns:xlink="http://www.w3.org/1999/xlink" width="2289.87" height="3304.77" viewBox="0 0 2289.87 3304.77"> -->
<svg xmlns="http://www.w3.org/2000/svg" xmlns:xlink="http://www.w3.org/1999/xlink" width="207" height="300" viewBox="0 0 2289.87 3304.77" fill="#000000">
<defs>
<clipPath id="clip-0">
<path clip-rule="nonzero" d="M 0 0 L 2289.871094 0 L 2289.871094 3304.769531 L 0 3304.769531 Z M 0 0 "/>
</clipPath>
<clipPath id="clip-1">
<path clip-rule="nonzero" d="M 92 87 L 2198 87 L 2198 2995 L 92 2995 Z M 92 87 "/>
</clipPath>
<clipPath id="clip-2">
<path clip-rule="evenodd" d="M 144.800781 2994.179688 L 2145.039062 2994.179688 C 2034.230469 2292.289062 2166.941406 1549.878906 2197.121094 1396.839844 C 1754.550781 1067.859375 1824.601562 557.671875 1829.25 87.960938 L 1567.019531 87.960938 L 1567.019531 704.410156 C 1567.019531 937.160156 1377.699219 1126.511719 1144.929688 1126.511719 C 912.183594 1126.511719 722.835938 937.160156 722.835938 704.410156 L 722.835938 87.960938 L 460.628906 87.960938 C 465.59375 558.128906 534.828125 1068.199219 92.742188 1396.839844 C 122.910156 1549.890625 255.613281 2292.269531 144.800781 2994.179688 "/>
</clipPath>
<!-- <linearGradient id="linear-pattern-0" gradientUnits="userSpaceOnUse" x1="0.178652" y1="0" x2="0.821284" y2="0" gradientTransform="matrix(-0.000197679, -4522.37, 4522.37, -0.000197679, 1144.93, 3802.11)">
<stop offset="0" stop-color="rgb(87.982178%, 88.233948%, 87.911987%)" stop-opacity="1"/>
<stop offset="0.03125" stop-color="rgb(87.878418%, 88.122559%, 87.805176%)" stop-opacity="1"/>
<stop offset="0.0625" stop-color="rgb(87.67395%, 87.902832%, 87.591553%)" stop-opacity="1"/>
<stop offset="0.09375" stop-color="rgb(87.469482%, 87.68158%, 87.379456%)" stop-opacity="1"/>
<stop offset="0.125" stop-color="rgb(87.265015%, 87.461853%, 87.167358%)" stop-opacity="1"/>
<stop offset="0.15625" stop-color="rgb(87.060547%, 87.240601%, 86.953735%)" stop-opacity="1"/>
<stop offset="0.1875" stop-color="rgb(86.854553%, 87.020874%, 86.741638%)" stop-opacity="1"/>
<stop offset="0.21875" stop-color="rgb(86.650085%, 86.799622%, 86.529541%)" stop-opacity="1"/>
<stop offset="0.25" stop-color="rgb(86.445618%, 86.579895%, 86.315918%)" stop-opacity="1"/>
<stop offset="0.28125" stop-color="rgb(86.24115%, 86.358643%, 86.103821%)" stop-opacity="1"/>
<stop offset="0.3125" stop-color="rgb(86.036682%, 86.138916%, 85.891724%)" stop-opacity="1"/>
<stop offset="0.34375" stop-color="rgb(85.830688%, 85.917664%, 85.678101%)" stop-opacity="1"/>
<stop offset="0.375" stop-color="rgb(85.626221%, 85.697937%, 85.466003%)" stop-opacity="1"/>
<stop offset="0.40625" stop-color="rgb(85.421753%, 85.476685%, 85.25238%)" stop-opacity="1"/>
<stop offset="0.4375" stop-color="rgb(85.217285%, 85.256958%, 85.040283%)" stop-opacity="1"/>
<stop offset="0.46875" stop-color="rgb(85.012817%, 85.035706%, 84.828186%)" stop-opacity="1"/>
<stop offset="0.5" stop-color="rgb(84.80835%, 84.815979%, 84.614563%)" stop-opacity="1"/>
<stop offset="0.53125" stop-color="rgb(84.602356%, 84.594727%, 84.402466%)" stop-opacity="1"/>
<stop offset="0.5625" stop-color="rgb(84.397888%, 84.375%, 84.190369%)" stop-opacity="1"/>
<stop offset="0.59375" stop-color="rgb(84.19342%, 84.153748%, 83.976746%)" stop-opacity="1"/>
<stop offset="0.625" stop-color="rgb(83.988953%, 83.934021%, 83.764648%)" stop-opacity="1"/>
<stop offset="0.65625" stop-color="rgb(83.784485%, 83.712769%, 83.552551%)" stop-opacity="1"/>
<stop offset="0.6875" stop-color="rgb(83.578491%, 83.493042%, 83.338928%)" stop-opacity="1"/>
<stop offset="0.71875" stop-color="rgb(83.374023%, 83.27179%, 83.126831%)" stop-opacity="1"/>
<stop offset="0.75" stop-color="rgb(83.169556%, 83.050537%, 82.914734%)" stop-opacity="1"/>
<stop offset="0.78125" stop-color="rgb(82.965088%, 82.830811%, 82.701111%)" stop-opacity="1"/>
<stop offset="0.8125" stop-color="rgb(82.76062%, 82.609558%, 82.489014%)" stop-opacity="1"/>
<stop offset="0.84375" stop-color="rgb(82.554626%, 82.389832%, 82.276917%)" stop-opacity="1"/>
<stop offset="0.875" stop-color="rgb(82.350159%, 82.168579%, 82.063293%)" stop-opacity="1"/>
<stop offset="0.90625" stop-color="rgb(82.145691%, 81.948853%, 81.851196%)" stop-opacity="1"/>
<stop offset="0.9375" stop-color="rgb(81.941223%, 81.7276%, 81.637573%)" stop-opacity="1"/>
<stop offset="0.96875" stop-color="rgb(81.736755%, 81.507874%, 81.425476%)" stop-opacity="1"/>
<stop offset="1" stop-color="rgb(81.530762%, 81.286621%, 81.213379%)" stop-opacity="1"/>
</linearGradient>-->
<clipPath id="clip-3">
<path clip-rule="nonzero" d="M 100 3082 L 2190 3082 L 2190 3217 L 100 3217 Z M 100 3082 "/>
</clipPath>
<clipPath id="clip-4">
<path clip-rule="evenodd" d="M 2160.300781 3082.148438 L 129.542969 3082.148438 C 121.003906 3127.378906 111.417969 3172.320312 100.597656 3216.839844 L 2189.238281 3216.839844 C 2178.421875 3172.320312 2168.839844 3127.378906 2160.300781 3082.148438 "/>
</clipPath>
<!-- <linearGradient id="linear-pattern-1" gradientUnits="userSpaceOnUse" x1="0.00000188829" y1="0" x2="1.000009" y2="0" gradientTransform="matrix(-0.00000589, -134.689, 134.689, -0.00000589, 1144.92, 3216.8402)">
<stop offset="0" stop-color="rgb(42.744446%, 43.136597%, 43.136597%)" stop-opacity="1"/>
<stop offset="0.0625" stop-color="rgb(42.559814%, 42.951965%, 42.951965%)" stop-opacity="1"/>
<stop offset="0.125" stop-color="rgb(42.192078%, 42.584229%, 42.584229%)" stop-opacity="1"/>
<stop offset="0.1875" stop-color="rgb(41.824341%, 42.216492%, 42.216492%)" stop-opacity="1"/>
<stop offset="0.25" stop-color="rgb(41.456604%, 41.848755%, 41.848755%)" stop-opacity="1"/>
<stop offset="0.3125" stop-color="rgb(41.088867%, 41.481018%, 41.481018%)" stop-opacity="1"/>
<stop offset="0.375" stop-color="rgb(40.72113%, 41.113281%, 41.113281%)" stop-opacity="1"/>
<stop offset="0.4375" stop-color="rgb(40.353394%, 40.745544%, 40.745544%)" stop-opacity="1"/>
<stop offset="0.5" stop-color="rgb(39.985657%, 40.377808%, 40.377808%)" stop-opacity="1"/>
<stop offset="0.5625" stop-color="rgb(39.61792%, 40.010071%, 40.010071%)" stop-opacity="1"/>
<stop offset="0.625" stop-color="rgb(39.250183%, 39.64386%, 39.64386%)" stop-opacity="1"/>
<stop offset="0.6875" stop-color="rgb(38.883972%, 39.276123%, 39.276123%)" stop-opacity="1"/>
<stop offset="0.75" stop-color="rgb(38.516235%, 38.908386%, 38.908386%)" stop-opacity="1"/>
<stop offset="0.8125" stop-color="rgb(38.148499%, 38.540649%, 38.540649%)" stop-opacity="1"/>
<stop offset="0.875" stop-color="rgb(37.780762%, 38.172913%, 38.172913%)" stop-opacity="1"/>
<stop offset="0.9375" stop-color="rgb(37.413025%, 37.805176%, 37.805176%)" stop-opacity="1"/>
<stop offset="1" stop-color="rgb(37.045288%, 37.437439%, 37.437439%)" stop-opacity="1"/>
</linearGradient> -->
</defs>
<g clip-path="url(#clip-0)">
<path fill-rule="evenodd" fill="rgb(19.993591%, 19.993591%, 19.993591%)" fill-opacity="1" d="M 144.800781 2994.179688 L 2145.039062 2994.179688 C 2034.230469 2292.289062 2166.941406 1549.878906 2197.121094 1396.839844 C 1754.550781 1067.859375 1824.601562 557.671875 1829.25 87.960938 L 1567.019531 87.960938 L 1567.019531 704.410156 C 1567.019531 937.160156 1377.699219 1126.511719 1144.929688 1126.511719 C 912.183594 1126.511719 722.835938 937.160156 722.835938 704.410156 L 722.835938 87.960938 L 460.628906 87.960938 C 465.59375 558.128906 534.828125 1068.199219 92.742188 1396.839844 C 122.910156 1549.890625 255.613281 2292.269531 144.800781 2994.179688 Z M 2160.300781 3082.148438 L 129.542969 3082.148438 C 121.003906 3127.378906 111.417969 3172.320312 100.597656 3216.839844 L 2189.238281 3216.839844 C 2178.421875 3172.320312 2168.839844 3127.378906 2160.300781 3082.148438 Z M 2245.871094 3304.769531 L 43.996094 3304.769531 C 15.15625 3304.769531 -5.949219 3277.320312 1.511719 3249.460938 C 223.453125 2421.148438 3.296875 1397.5 1.039062 1387.261719 C -2.78125 1369.921875 4.230469 1352 18.753906 1341.820312 C 461.917969 1031.308594 372.429688 525.878906 372.429688 43.980469 C 372.429688 19.699219 392.117188 0 416.410156 0 L 766.816406 0 C 791.101562 0 810.800781 19.699219 810.800781 43.980469 L 810.800781 704.410156 C 810.800781 888.648438 960.695312 1038.53125 1144.921875 1038.53125 C 1329.128906 1038.53125 1479.050781 888.640625 1479.050781 704.410156 L 1479.050781 43.980469 C 1479.050781 19.699219 1498.75 0 1523.019531 0 L 1873.460938 0 C 1897.71875 0 1917.421875 19.699219 1917.421875 43.980469 C 1917.421875 525.699219 1827.960938 1031.550781 2271.109375 1341.789062 C 2285.660156 1351.980469 2292.621094 1369.910156 2288.820312 1387.238281 C 2286.578125 1397.5 2066.429688 2421.148438 2288.371094 3249.429688 C 2295.800781 3277.269531 2274.710938 3304.769531 2245.871094 3304.769531 "/>
</g>
<g clip-path="url(#clip-1)">
<g clip-path="url(#clip-2)">
<path fill-rule="nonzero" fill="url(#linear-pattern-0)" d="M 92.742188 2994.179688 L 2197.121094 2994.179688 L 2197.121094 87.960938 L 92.742188 87.960938 Z M 92.742188 2994.179688 "/>
</g>
</g>
<g clip-path="url(#clip-3)">
<g clip-path="url(#clip-4)">
<path fill-rule="nonzero" fill="url(#linear-pattern-1)" d="M 100.597656 3216.839844 L 2189.238281 3216.839844 L 2189.238281 3082.148438 L 100.597656 3082.148438 Z M 100.597656 3216.839844 "/>
</g>
</g>
</svg>
